# xmcd CD database file
#
# Track frame offsets:
#	150
#	18172
#	50186
#	74764
#	94825
#	124353
#	145198
#	166871
#	192593
#	219956
#	241888
#
# Disc length: 3591 seconds
#
# Revision: 0
# Processed by: cddbd v1.5.2PL0 Copyright (c) Steve Scherf et al.
# Submitted via: CDex 1.51
#
DISCID=a40e050b
DTITLE=Five Brothers - Saxodrome
DYEAR=2007
DGENRE=Jazz
TTITLE0=I Believe In You (F.Loesser)
TTITLE1=Blues In The Corner (McCoy Tyner)
TTITLE2=Pragma (Claudio Capurro)
TTITLE3=Gerontologia (Livio Zanellato)
TTITLE4=Sweet And Lovely (Gus Arnheim)
TTITLE5=Darn That Dream (J. Van Heusen)
TTITLE6=I Mean You (T. Monk)
TTITLE7=Abelardo ed Aloisa (Claudio Capurro)
TTITLE8=Tribal Dance (Leo Lagorio)
TTITLE9=Trinity Star (Claudio Capurro)
TTITLE10=Ti's Allright With Me (Cole Porter)
EXTD=YEAR: 2007
EXTT0=
EXTT1=
EXTT2=
EXTT3=
EXTT4=
EXTT5=
EXTT6=
EXTT7=
EXTT8=
EXTT9=
EXTT10=
PLAYORDER=
